<svg width="13" height="12" viewBox="0 0 13 12" fill="none" xmlns="http://www.w3.org/2000/svg">
<path fill-rule="evenodd" clip-rule="evenodd" d="M6.36654 2.09245C3.68495 2.09245 1.69987 3.88503 1.69987 5.88411C1.69987 7.05895 2.36545 8.14278 3.47437 8.85678C3.90487 9.13445 4.02212 9.6752 4.04137 10.1529C4.48062 9.97211 4.7752 9.47628 5.30837 9.57778C5.64787 9.64195 6.00195 9.67578 6.36654 9.67578C9.04812 9.67578 11.0332 7.8832 11.0332 5.88411C11.0332 3.88503 9.04812 2.09245 6.36654 2.09245ZM0.533203 5.88411C0.533203 3.05086 3.2492 0.925781 6.36654 0.925781C9.48387 0.925781 12.1999 3.05086 12.1999 5.88411C12.1999 8.71736 9.48387 10.8424 6.36654 10.8424C5.98562 10.8424 5.61287 10.8115 5.25179 10.752C5.19754 10.7946 5.1042 10.8716 4.98929 10.9527C4.65737 11.1866 4.17845 11.4258 3.44987 11.4258C3.29516 11.4258 3.14679 11.3643 3.03739 11.2549C2.92799 11.1455 2.86654 10.9972 2.86654 10.8424C2.86654 10.5216 2.94995 10.1226 2.8117 9.81811C1.45312 8.93086 0.533203 7.51628 0.533203 5.88411Z" fill="#4C4C4C"/>
</svg>
