<svg width="16" height="15" viewBox="0 0 16 15" fill="none" xmlns="http://www.w3.org/2000/svg">
<path fill-rule="evenodd" clip-rule="evenodd" d="M12.4323 13.6129C13.8497 13.6129 14.9992 12.4641 15 11.0467V11.0452V9.00195C14.0639 9.00195 13.3056 8.24368 13.3049 7.30757C13.3049 6.37222 14.0631 5.61319 14.9992 5.61319L15 3.56995C15.0015 2.15178 13.8535 1.00151 12.4361 1H12.4316H3.56843C2.15027 1 1.00076 2.14876 1 3.56692V5.67903C1.90357 5.64724 2.66108 6.35405 2.69287 7.25762C2.69362 7.27427 2.69438 7.29092 2.69438 7.30757C2.69514 8.24216 1.93914 9.00043 1.00454 9.00195H1V11.0452C0.999244 12.4626 2.14876 13.6129 3.56616 13.6129H12.4323Z" stroke="#BDBDC8" stroke-width="1.5" stroke-linecap="round" stroke-linejoin="round"/>
<path fill-rule="evenodd" clip-rule="evenodd" d="M8.27824 5.01856L8.7444 5.96224C8.78981 6.05456 8.87759 6.11889 8.97975 6.13402L10.0218 6.28613C10.2799 6.32397 10.382 6.64029 10.1959 6.82116L9.44213 7.55521C9.36797 7.6271 9.33467 7.73078 9.35132 7.83294L9.52916 8.8697C9.57305 9.12624 9.3044 9.32148 9.07435 9.2004L8.14278 8.71078C8.05121 8.66234 7.94224 8.66234 7.85067 8.71078L6.91986 9.2004C6.68905 9.32148 6.4204 9.12624 6.46429 8.8697L6.64213 7.83294C6.65954 7.73078 6.62548 7.6271 6.55132 7.55521L5.79835 6.82116C5.61219 6.64029 5.71435 6.32397 5.97165 6.28613L7.0137 6.13402C7.11586 6.11889 7.2044 6.05456 7.24981 5.96224L7.71521 5.01856C7.83024 4.78548 8.16321 4.78548 8.27824 5.01856Z" stroke="#BDBDC8" stroke-width="1.5" stroke-linecap="round" stroke-linejoin="round"/>
</svg>
