<svg width="16" height="16" viewBox="0 0 16 16" fill="none" xmlns="http://www.w3.org/2000/svg">
<path d="M5.90532 14.14V11.9933C5.9053 11.4472 6.37388 11.0036 6.95443 10.9999H9.08101C9.66434 10.9999 10.1372 11.4447 10.1372 11.9933V14.1466C10.1371 14.6102 10.5305 14.9891 11.0233 15H12.441C13.8543 15 15 13.9225 15 12.5933V6.48648C14.9925 5.96358 14.7314 5.47254 14.2911 5.15312L9.44253 1.47971C8.59311 0.840096 7.38562 0.840096 6.5362 1.47971L1.70886 5.15979C1.26693 5.47792 1.00544 5.96977 1 6.49315V12.5933C1 13.9225 2.1457 15 3.55899 15H4.97671C5.48173 15 5.89114 14.615 5.89114 14.14" stroke="#BDBDC8" stroke-width="1.5" stroke-linecap="round" stroke-linejoin="round"/>
</svg>
