<svg width="290" height="100" viewBox="0 0 290 100" fill="none" xmlns="http://www.w3.org/2000/svg">
<path d="M0 16C0 7.16345 7.16344 0 16 0H274C282.836 0 290 7.16344 290 16V84C290 92.8366 282.836 100 274 100H16C7.16344 100 0 92.8366 0 84V16Z" fill="url(#paint0_linear_1057_10540)"/>
<path d="M34.1634 89.0244C40.7018 90.3748 39.7182 100 33.0418 100H6.92129C3.09936 100 0.00106812 96.9017 0.00106812 93.0798V52.9103C0.00106812 51.9784 1.31388 51.7788 1.59085 52.6686C1.74763 53.1724 2.33512 53.3958 2.78702 53.1236L3.12521 52.9198C3.8961 52.4555 4.87274 53.0412 4.82612 53.9399L4.61471 58.0154C4.57669 58.7483 4.78469 59.4728 5.20566 60.0739L6.51662 61.9459C7.37943 63.1779 7.32294 64.8357 6.38309 66.0099C5.33635 67.3177 5.40386 69.2006 6.54711 70.425L7.00304 70.9132C7.5969 71.5492 7.77982 72.4664 7.47536 73.2816L6.43308 76.0721C5.90862 77.4763 7.56989 78.6768 8.73853 77.7382C9.36644 77.2339 10.2828 77.3264 10.7972 77.9461L14.4589 82.3578C15.4247 83.5214 16.728 84.3564 18.1888 84.7475L34.1634 89.0244Z" fill="#FF9518"/>
<path d="M26.4397 93.6188C30.3549 94.2263 29.9097 100 25.9476 100H4.83847C2.16682 100 0.00102234 97.8342 0.00102234 95.1626V72.6955C0.00102234 72.0025 0.954216 71.8128 1.21947 72.453C1.35641 72.7836 1.73976 72.9351 2.0657 72.7876L2.36642 72.6515C3.02335 72.3542 3.75969 72.866 3.71002 73.5854L3.58667 75.3718C3.54808 75.9306 3.74301 76.4805 4.125 76.8902L5.02226 77.8527C5.65679 78.5334 5.62123 79.5991 4.94274 80.2359C4.19448 80.9382 4.24032 82.1401 5.03991 82.7833L5.2923 82.9864C5.80485 83.3988 5.96137 84.1123 5.66851 84.7013L5.28421 85.4742C4.7722 86.5041 5.92255 87.5643 6.90724 86.9701C7.34155 86.708 7.89629 86.7617 8.27237 87.102L11.0691 89.6334C11.9003 90.3856 12.9192 90.8994 14.0183 91.1205L26.4397 93.6188Z" fill="#FFA53C"/>
<path d="M177.564 10.3659C171.574 8.8195 172.694 0 178.88 0H274C282.836 0 290 7.16344 290 16V58.9009C290 66.1695 280.597 69.0564 276.518 63.04C276.138 62.4794 275.683 61.9739 275.165 61.5376L257.823 46.9294C257.189 46.396 256.516 45.9125 255.808 45.4834L234.809 32.7565C234.125 32.3422 233.411 31.9797 232.674 31.6721L207.681 21.25L177.564 10.3659Z" fill="#FE6B00"/>
<path d="M243.197 10.1325C238.526 7.2125 240.595 0 246.103 0H279.986C285.516 0 289.999 4.48305 289.999 10.0132V61.6658C289.999 65.0607 285.182 65.7221 284.267 62.4529C284.219 62.2814 284.156 62.1147 284.077 61.9548L276.821 47.1519C276.487 46.4702 276.104 45.8131 275.677 45.1857L267.608 33.3435C267.06 32.539 266.44 31.7861 265.755 31.0943L256.006 21.25L243.901 10.6558C243.681 10.4628 243.445 10.2878 243.197 10.1325Z" fill="#FE5100"/>
<defs>
<linearGradient id="paint0_linear_1057_10540" x1="5.60431e-07" y1="4.26829" x2="296.641" y2="34.2168" gradientUnits="userSpaceOnUse">
<stop stop-color="#FA8405"/>
<stop offset="0.44" stop-color="#FC790B"/>
</linearGradient>
</defs>
</svg>
