<svg width="20" height="20" viewBox="0 0 20 20" fill="none" xmlns="http://www.w3.org/2000/svg">
<path d="M8.53711 14.9688H11.459V16.22H8.53711V14.9688Z" fill="url(#paint0_linear_1575_513)"/>
<path d="M8.53711 14.9688H11.459V16.22H8.53711V14.9688Z" fill="url(#paint1_radial_1575_513)"/>
<g filter="url(#filter0_i_1575_513)">
<path d="M5.67635 17.0225C5.81165 16.7789 6.00961 16.576 6.24972 16.4347C6.48983 16.2933 6.76337 16.2188 7.04198 16.2188H12.9376C13.2151 16.2188 13.4876 16.2928 13.7271 16.433C13.9666 16.5733 14.1643 16.7748 14.3001 17.0169L14.9395 18.1569C14.9714 18.214 14.9879 18.2784 14.9872 18.3438C14.9865 18.4093 14.9688 18.4734 14.9357 18.5298C14.9026 18.5862 14.8553 18.633 14.7985 18.6655C14.7417 18.698 14.6774 18.715 14.612 18.715H5.37323C5.30794 18.715 5.24376 18.698 5.18707 18.6656C5.13037 18.6333 5.08311 18.5866 5.04996 18.5304C5.01682 18.4741 4.99893 18.4102 4.99808 18.3449C4.99723 18.2796 5.01344 18.2152 5.0451 18.1581L5.67635 17.0225Z" fill="url(#paint2_radial_1575_513)"/>
</g>
<path d="M5.67635 17.0225C5.81165 16.7789 6.00961 16.576 6.24972 16.4347C6.48983 16.2933 6.76337 16.2188 7.04198 16.2188H12.9376C13.2151 16.2188 13.4876 16.2928 13.7271 16.433C13.9666 16.5733 14.1643 16.7748 14.3001 17.0169L14.9395 18.1569C14.9714 18.214 14.9879 18.2784 14.9872 18.3438C14.9865 18.4093 14.9688 18.4734 14.9357 18.5298C14.9026 18.5862 14.8553 18.633 14.7985 18.6655C14.7417 18.698 14.6774 18.715 14.612 18.715H5.37323C5.30794 18.715 5.24376 18.698 5.18707 18.6656C5.13037 18.6333 5.08311 18.5866 5.04996 18.5304C5.01682 18.4741 4.99893 18.4102 4.99808 18.3449C4.99723 18.2796 5.01344 18.2152 5.0451 18.1581L5.67635 17.0225Z" fill="url(#paint3_linear_1575_513)"/>
<g filter="url(#filter1_ii_1575_513)">
<path d="M6.24609 4.39453C6.24609 3.56573 6.57533 2.77087 7.16139 2.18482C7.74744 1.59877 8.54229 1.26953 9.37109 1.26953H10.6292C11.458 1.26953 12.2529 1.59877 12.8389 2.18482C13.425 2.77087 13.7542 3.56573 13.7542 4.39453V10.6339C13.7542 11.4627 13.425 12.2576 12.8389 12.8436C12.2529 13.4297 11.458 13.7589 10.6292 13.7589H9.37109C8.54229 13.7589 7.74744 13.4297 7.16139 12.8436C6.57533 12.2576 6.24609 11.4627 6.24609 10.6339V4.39453Z" fill="url(#paint4_radial_1575_513)"/>
</g>
<path d="M6.24609 4.39453C6.24609 3.56573 6.57533 2.77087 7.16139 2.18482C7.74744 1.59877 8.54229 1.26953 9.37109 1.26953H10.6292C11.458 1.26953 12.2529 1.59877 12.8389 2.18482C13.425 2.77087 13.7542 3.56573 13.7542 4.39453V10.6339C13.7542 11.4627 13.425 12.2576 12.8389 12.8436C12.2529 13.4297 11.458 13.7589 10.6292 13.7589H9.37109C8.54229 13.7589 7.74744 13.4297 7.16139 12.8436C6.57533 12.2576 6.24609 11.4627 6.24609 10.6339V4.39453Z" fill="url(#paint5_radial_1575_513)"/>
<path d="M6.24609 4.39453C6.24609 3.56573 6.57533 2.77087 7.16139 2.18482C7.74744 1.59877 8.54229 1.26953 9.37109 1.26953H10.6292C11.458 1.26953 12.2529 1.59877 12.8389 2.18482C13.425 2.77087 13.7542 3.56573 13.7542 4.39453V10.6339C13.7542 11.4627 13.425 12.2576 12.8389 12.8436C12.2529 13.4297 11.458 13.7589 10.6292 13.7589H9.37109C8.54229 13.7589 7.74744 13.4297 7.16139 12.8436C6.57533 12.2576 6.24609 11.4627 6.24609 10.6339V4.39453Z" fill="url(#paint6_radial_1575_513)"/>
<path d="M6.24609 6.00469V5.08594H9.24234C9.36418 5.08594 9.48102 5.13434 9.56717 5.22049C9.65332 5.30663 9.70172 5.42348 9.70172 5.54531C9.70172 5.66715 9.65332 5.78399 9.56717 5.87014C9.48102 5.95629 9.36418 6.00469 9.24234 6.00469H6.24609Z" fill="url(#paint7_linear_1575_513)"/>
<path d="M6.24609 7.97344V7.05469H9.24234C9.36418 7.05469 9.48102 7.10309 9.56717 7.18924C9.65332 7.27538 9.70172 7.39223 9.70172 7.51406C9.70172 7.6359 9.65332 7.75274 9.56717 7.83889C9.48102 7.92504 9.36418 7.97344 9.24234 7.97344H6.24609Z" fill="url(#paint8_radial_1575_513)"/>
<path d="M6.24609 9.94219V9.02344H9.24234C9.36418 9.02344 9.48102 9.07184 9.56717 9.15798C9.65332 9.24413 9.70172 9.36098 9.70172 9.48281C9.70172 9.60465 9.65332 9.72149 9.56717 9.80764C9.48102 9.89379 9.36418 9.94219 9.24234 9.94219H6.24609Z" fill="url(#paint9_radial_1575_513)"/>
<path d="M13.7545 5.08594V6.00469H10.7582C10.6364 6.00469 10.5195 5.95629 10.4334 5.87014C10.3472 5.78399 10.2988 5.66715 10.2988 5.54531C10.2988 5.42348 10.3472 5.30663 10.4334 5.22049C10.5195 5.13434 10.6364 5.08594 10.7582 5.08594H13.7545Z" fill="url(#paint10_radial_1575_513)"/>
<path d="M13.7545 7.05469V7.97344H10.7582C10.6364 7.97344 10.5195 7.92504 10.4334 7.83889C10.3472 7.75274 10.2988 7.6359 10.2988 7.51406C10.2988 7.39223 10.3472 7.27538 10.4334 7.18924C10.5195 7.10309 10.6364 7.05469 10.7582 7.05469H13.7545Z" fill="url(#paint11_radial_1575_513)"/>
<path d="M13.7545 9.02344V9.94219H10.7582C10.6364 9.94219 10.5195 9.89379 10.4334 9.80764C10.3472 9.72149 10.2988 9.60465 10.2988 9.48281C10.2988 9.36098 10.3472 9.24413 10.4334 9.15799C10.5195 9.07184 10.6364 9.02344 10.7582 9.02344H13.7545Z" fill="url(#paint12_radial_1575_513)"/>
<g filter="url(#filter2_i_1575_513)">
<path d="M15.607 8.71484C15.607 8.54908 15.5412 8.39011 15.424 8.2729C15.3068 8.15569 15.1478 8.08984 14.982 8.08984C14.8163 8.08984 14.6573 8.15569 14.5401 8.2729C14.4229 8.39011 14.357 8.54908 14.357 8.71484H15.607ZM5.64453 8.71484C5.64453 8.54908 5.57868 8.39011 5.46147 8.2729C5.34426 8.15569 5.18529 8.08984 5.01953 8.08984C4.85377 8.08984 4.6948 8.15569 4.57759 8.2729C4.46038 8.39011 4.39453 8.54908 4.39453 8.71484H5.64453ZM14.357 8.71484V11.2148H15.607V8.71484H14.357ZM11.232 14.3398H8.76953V15.5898H11.232V14.3398ZM5.64453 11.2148V8.71484H4.39453V11.2148H5.64453ZM8.76953 14.3398C7.94073 14.3398 7.14587 14.0106 6.55982 13.4246C5.97377 12.8385 5.64453 12.0436 5.64453 11.2148H4.39453C4.39453 12.3752 4.85547 13.488 5.67594 14.3084C6.49641 15.1289 7.60921 15.5898 8.76953 15.5898V14.3398ZM14.357 11.2148C14.357 11.6252 14.2762 12.0316 14.1192 12.4107C13.9621 12.7899 13.7319 13.1344 13.4417 13.4246C13.1516 13.7147 12.8071 13.9449 12.4279 14.102C12.0488 14.259 11.6424 14.3398 11.232 14.3398V15.5898C12.3924 15.5898 13.5052 15.1289 14.3256 14.3084C15.1461 13.488 15.607 12.3752 15.607 11.2148H14.357Z" fill="url(#paint13_linear_1575_513)"/>
<path d="M15.607 8.71484C15.607 8.54908 15.5412 8.39011 15.424 8.2729C15.3068 8.15569 15.1478 8.08984 14.982 8.08984C14.8163 8.08984 14.6573 8.15569 14.5401 8.2729C14.4229 8.39011 14.357 8.54908 14.357 8.71484H15.607ZM5.64453 8.71484C5.64453 8.54908 5.57868 8.39011 5.46147 8.2729C5.34426 8.15569 5.18529 8.08984 5.01953 8.08984C4.85377 8.08984 4.6948 8.15569 4.57759 8.2729C4.46038 8.39011 4.39453 8.54908 4.39453 8.71484H5.64453ZM14.357 8.71484V11.2148H15.607V8.71484H14.357ZM11.232 14.3398H8.76953V15.5898H11.232V14.3398ZM5.64453 11.2148V8.71484H4.39453V11.2148H5.64453ZM8.76953 14.3398C7.94073 14.3398 7.14587 14.0106 6.55982 13.4246C5.97377 12.8385 5.64453 12.0436 5.64453 11.2148H4.39453C4.39453 12.3752 4.85547 13.488 5.67594 14.3084C6.49641 15.1289 7.60921 15.5898 8.76953 15.5898V14.3398ZM14.357 11.2148C14.357 11.6252 14.2762 12.0316 14.1192 12.4107C13.9621 12.7899 13.7319 13.1344 13.4417 13.4246C13.1516 13.7147 12.8071 13.9449 12.4279 14.102C12.0488 14.259 11.6424 14.3398 11.232 14.3398V15.5898C12.3924 15.5898 13.5052 15.1289 14.3256 14.3084C15.1461 13.488 15.607 12.3752 15.607 11.2148H14.357Z" fill="url(#paint14_radial_1575_513)"/>
</g>
<g filter="url(#filter3_f_1575_513)">
<path d="M15.3613 8.53125C15.3613 8.47738 15.3399 8.42571 15.3018 8.38762C15.2637 8.34953 15.2121 8.32812 15.1582 8.32812C15.1043 8.32812 15.0527 8.34953 15.0146 8.38762C14.9765 8.42571 14.9551 8.47738 14.9551 8.53125H15.3613ZM5.42383 8.53125C5.42383 8.47738 5.40243 8.42571 5.36433 8.38762C5.32624 8.34953 5.27458 8.32812 5.2207 8.32812C5.16683 8.32812 5.11517 8.34953 5.07707 8.38762C5.03898 8.42571 5.01758 8.47738 5.01758 8.53125H5.42383ZM14.9551 8.53125V11.1062H15.3613V8.53125H14.9551ZM11.4176 14.7638H8.96133V15.17H11.4176V14.7638ZM5.42383 11.1056V8.53062H5.01758V11.1056H5.42383ZM8.96133 14.7638C7.01383 14.7638 5.42383 13.1325 5.42383 11.1056H5.01758C5.01758 13.3444 6.77758 15.17 8.96133 15.17V14.7638ZM14.9551 11.1062C14.9551 13.1325 13.3651 14.7638 11.4176 14.7638V15.17C13.6013 15.17 15.3613 13.345 15.3613 11.1062H14.9551Z" fill="url(#paint15_radial_1575_513)"/>
<path d="M15.3613 8.53125C15.3613 8.47738 15.3399 8.42571 15.3018 8.38762C15.2637 8.34953 15.2121 8.32812 15.1582 8.32812C15.1043 8.32812 15.0527 8.34953 15.0146 8.38762C14.9765 8.42571 14.9551 8.47738 14.9551 8.53125H15.3613ZM5.42383 8.53125C5.42383 8.47738 5.40243 8.42571 5.36433 8.38762C5.32624 8.34953 5.27458 8.32812 5.2207 8.32812C5.16683 8.32812 5.11517 8.34953 5.07707 8.38762C5.03898 8.42571 5.01758 8.47738 5.01758 8.53125H5.42383ZM14.9551 8.53125V11.1062H15.3613V8.53125H14.9551ZM11.4176 14.7638H8.96133V15.17H11.4176V14.7638ZM5.42383 11.1056V8.53062H5.01758V11.1056H5.42383ZM8.96133 14.7638C7.01383 14.7638 5.42383 13.1325 5.42383 11.1056H5.01758C5.01758 13.3444 6.77758 15.17 8.96133 15.17V14.7638ZM14.9551 11.1062C14.9551 13.1325 13.3651 14.7638 11.4176 14.7638V15.17C13.6013 15.17 15.3613 13.345 15.3613 11.1062H14.9551Z" fill="url(#paint16_radial_1575_513)"/>
</g>
<defs>
<filter id="filter0_i_1575_513" x="4.99805" y="16.2188" width="10.4883" height="2.69609" filterUnits="userSpaceOnUse" color-interpolation-filters="sRGB">
<feFlood flood-opacity="0" result="BackgroundImageFix"/>
<feBlend mode="normal" in="SourceGraphic" in2="BackgroundImageFix" result="shape"/>
<feColorMatrix in="SourceAlpha" type="matrix" values="0 0 0 0 0 0 0 0 0 0 0 0 0 0 0 0 0 0 127 0" result="hardAlpha"/>
<feOffset dx="0.5" dy="0.2"/>
<feGaussianBlur stdDeviation="0.5"/>
<feComposite in2="hardAlpha" operator="arithmetic" k2="-1" k3="1"/>
<feColorMatrix type="matrix" values="0 0 0 0 0.619608 0 0 0 0 0.611765 0 0 0 0 0.631373 0 0 0 1 0"/>
<feBlend mode="normal" in2="shape" result="effect1_innerShadow_1575_513"/>
</filter>
<filter id="filter1_ii_1575_513" x="6.24609" y="1.01953" width="7.75781" height="12.7383" filterUnits="userSpaceOnUse" color-interpolation-filters="sRGB">
<feFlood flood-opacity="0" result="BackgroundImageFix"/>
<feBlend mode="normal" in="SourceGraphic" in2="BackgroundImageFix" result="shape"/>
<feColorMatrix in="SourceAlpha" type="matrix" values="0 0 0 0 0 0 0 0 0 0 0 0 0 0 0 0 0 0 127 0" result="hardAlpha"/>
<feOffset/>
<feGaussianBlur stdDeviation="1"/>
<feComposite in2="hardAlpha" operator="arithmetic" k2="-1" k3="1"/>
<feColorMatrix type="matrix" values="0 0 0 0 0.678431 0 0 0 0 0.678431 0 0 0 0 0.678431 0 0 0 1 0"/>
<feBlend mode="normal" in2="shape" result="effect1_innerShadow_1575_513"/>
<feColorMatrix in="SourceAlpha" type="matrix" values="0 0 0 0 0 0 0 0 0 0 0 0 0 0 0 0 0 0 127 0" result="hardAlpha"/>
<feOffset dx="0.25" dy="-0.25"/>
<feGaussianBlur stdDeviation="0.5"/>
<feComposite in2="hardAlpha" operator="arithmetic" k2="-1" k3="1"/>
<feColorMatrix type="matrix" values="0 0 0 0 0.576471 0 0 0 0 0.556863 0 0 0 0 0.6 0 0 0 1 0"/>
<feBlend mode="normal" in2="effect1_innerShadow_1575_513" result="effect2_innerShadow_1575_513"/>
</filter>
<filter id="filter2_i_1575_513" x="4.39453" y="7.98984" width="11.2129" height="7.6" filterUnits="userSpaceOnUse" color-interpolation-filters="sRGB">
<feFlood flood-opacity="0" result="BackgroundImageFix"/>
<feBlend mode="normal" in="SourceGraphic" in2="BackgroundImageFix" result="shape"/>
<feColorMatrix in="SourceAlpha" type="matrix" values="0 0 0 0 0 0 0 0 0 0 0 0 0 0 0 0 0 0 127 0" result="hardAlpha"/>
<feOffset dy="-0.1"/>
<feGaussianBlur stdDeviation="0.25"/>
<feComposite in2="hardAlpha" operator="arithmetic" k2="-1" k3="1"/>
<feColorMatrix type="matrix" values="0 0 0 0 0.709804 0 0 0 0 0.682353 0 0 0 0 0.737255 0 0 0 1 0"/>
<feBlend mode="normal" in2="shape" result="effect1_innerShadow_1575_513"/>
</filter>
<filter id="filter3_f_1575_513" x="4.36758" y="7.67813" width="11.6437" height="8.14375" filterUnits="userSpaceOnUse" color-interpolation-filters="sRGB">
<feFlood flood-opacity="0" result="BackgroundImageFix"/>
<feBlend mode="normal" in="SourceGraphic" in2="BackgroundImageFix" result="shape"/>
<feGaussianBlur stdDeviation="0.325" result="effect1_foregroundBlur_1575_513"/>
</filter>
<linearGradient id="paint0_linear_1575_513" x1="8.92398" y1="16.22" x2="11.5609" y2="16.22" gradientUnits="userSpaceOnUse">
<stop stop-color="#A29FA5"/>
<stop offset="1" stop-color="#B2AFB5"/>
</linearGradient>
<radialGradient id="paint1_radial_1575_513" cx="0" cy="0" r="1" gradientUnits="userSpaceOnUse" gradientTransform="translate(10.4671 16.6819) rotate(-90) scale(1.60156 0.970644)">
<stop stop-color="#B9B6BD"/>
<stop offset="1" stop-color="#B9B6BD" stop-opacity="0"/>
</radialGradient>
<radialGradient id="paint2_radial_1575_513" cx="0" cy="0" r="1" gradientUnits="userSpaceOnUse" gradientTransform="translate(13.1614 18.715) rotate(-90) scale(2.87408 6.20699)">
<stop stop-color="#E1D9EB"/>
<stop offset="1" stop-color="#AFA9B5"/>
</radialGradient>
<linearGradient id="paint3_linear_1575_513" x1="10.1732" y1="18.9269" x2="10.1732" y2="18.3219" gradientUnits="userSpaceOnUse">
<stop offset="0.145" stop-color="#B697D5"/>
<stop offset="1" stop-color="#9E87B4" stop-opacity="0"/>
</linearGradient>
<radialGradient id="paint4_radial_1575_513" cx="0" cy="0" r="1" gradientUnits="userSpaceOnUse" gradientTransform="translate(10.0005 7.98891) rotate(90) scale(7.44144 4.59242)">
<stop stop-color="#B1A9BA"/>
<stop offset="1" stop-color="#C7C4CA"/>
</radialGradient>
<radialGradient id="paint5_radial_1575_513" cx="0" cy="0" r="1" gradientUnits="userSpaceOnUse" gradientTransform="translate(12.3417 2.89141) rotate(139.699) scale(4.04632 5.69243)">
<stop stop-color="#F3F1F5"/>
<stop offset="1" stop-color="#D1CED4" stop-opacity="0"/>
</radialGradient>
<radialGradient id="paint6_radial_1575_513" cx="0" cy="0" r="1" gradientUnits="userSpaceOnUse" gradientTransform="translate(9.68547 13.7583) rotate(-90) scale(3.71872 4.6875)">
<stop stop-color="#A89AB7"/>
<stop offset="1" stop-color="#A89AB7" stop-opacity="0"/>
</radialGradient>
<linearGradient id="paint7_linear_1575_513" x1="7.97422" y1="5.19656" x2="9.70172" y2="6.00469" gradientUnits="userSpaceOnUse">
<stop stop-color="#2E213A"/>
<stop offset="1" stop-color="#382549"/>
</linearGradient>
<radialGradient id="paint8_radial_1575_513" cx="0" cy="0" r="1" gradientUnits="userSpaceOnUse" gradientTransform="translate(7.97422 6.81719) rotate(90) scale(1.46484 4.6067)">
<stop offset="0.427" stop-color="#2E223B"/>
<stop offset="1" stop-color="#543F68"/>
</radialGradient>
<radialGradient id="paint9_radial_1575_513" cx="0" cy="0" r="1" gradientUnits="userSpaceOnUse" gradientTransform="translate(7.97422 8.78594) rotate(90) scale(1.46484 4.6067)">
<stop offset="0.427" stop-color="#2E223B"/>
<stop offset="1" stop-color="#543F68"/>
</radialGradient>
<radialGradient id="paint10_radial_1575_513" cx="0" cy="0" r="1" gradientUnits="userSpaceOnUse" gradientTransform="translate(12.0263 5.08594) rotate(90) scale(0.918481 2.88848)">
<stop offset="0.355" stop-color="#2E223B"/>
<stop offset="1" stop-color="#473A55"/>
</radialGradient>
<radialGradient id="paint11_radial_1575_513" cx="0" cy="0" r="1" gradientUnits="userSpaceOnUse" gradientTransform="translate(12.0263 6.81656) rotate(90) scale(1.26953 3.99247)">
<stop offset="0.118" stop-color="#2E223B"/>
<stop offset="1" stop-color="#543F68"/>
</radialGradient>
<radialGradient id="paint12_radial_1575_513" cx="0" cy="0" r="1" gradientUnits="userSpaceOnUse" gradientTransform="translate(12.0263 8.78531) rotate(90) scale(1.46484 4.6067)">
<stop offset="0.427" stop-color="#2E223B"/>
<stop offset="1" stop-color="#543F68"/>
</radialGradient>
<linearGradient id="paint13_linear_1575_513" x1="5.34516" y1="13.2636" x2="15.3808" y2="13.2636" gradientUnits="userSpaceOnUse">
<stop stop-color="#A9A3B1"/>
<stop offset="1" stop-color="#C7C1CE"/>
</linearGradient>
<radialGradient id="paint14_radial_1575_513" cx="0" cy="0" r="1" gradientUnits="userSpaceOnUse" gradientTransform="translate(6.77578 10.108) rotate(76.032) scale(5.00552 2.52352)">
<stop offset="0.384" stop-color="#959199"/>
<stop offset="1" stop-color="#959199" stop-opacity="0"/>
</radialGradient>
<radialGradient id="paint15_radial_1575_513" cx="0" cy="0" r="1" gradientUnits="userSpaceOnUse" gradientTransform="translate(15.5807 8.28982) rotate(99.112) scale(9.72412 4.86594)">
<stop stop-color="#DFDAE4"/>
<stop offset="1" stop-color="#DFDAE4" stop-opacity="0"/>
</radialGradient>
<radialGradient id="paint16_radial_1575_513" cx="0" cy="0" r="1" gradientUnits="userSpaceOnUse" gradientTransform="translate(5.42258 8.18812) rotate(55.859) scale(10.4491 3.00975)">
<stop stop-color="#B8ADC4"/>
<stop offset="1" stop-color="#B8ADC4" stop-opacity="0"/>
</radialGradient>
</defs>
</svg>
