<svg width="21" height="21" viewBox="0 0 21 21" fill="none" xmlns="http://www.w3.org/2000/svg">
<path fill-rule="evenodd" clip-rule="evenodd" d="M17.9249 17.9234C14.716 21.1327 9.96426 21.826 6.07574 20.0277C5.50169 19.7966 5.03106 19.6098 4.58364 19.6098C4.10494 19.6126 3.58123 19.7927 3.07204 19.9677C2.25564 20.2484 1.47655 20.5163 0.980027 20.0203C0.485081 19.5253 0.749788 18.7491 1.02795 17.9334C1.20288 17.4205 1.38313 16.8919 1.38313 16.4079C1.38313 15.9604 1.20374 15.4982 0.972641 14.923C-0.826528 11.0351 -0.132186 6.28182 3.07677 3.07357C7.17318 -1.02435 13.8285 -1.02435 17.9249 3.07251C22.0287 7.17676 22.0213 13.8265 17.9249 17.9234ZM10.4941 5.43945C10.9084 5.43945 11.2441 5.77524 11.2441 6.18945V11.2056C11.2441 11.6198 10.9084 11.9556 10.4941 11.9556C10.0799 11.9556 9.74414 11.6198 9.74414 11.2056V6.18945C9.74414 5.77524 10.0799 5.43945 10.4941 5.43945ZM10.4941 13.8086C9.94186 13.8086 9.49414 14.2563 9.49414 14.8086C9.49414 15.3609 9.94186 15.8086 10.4941 15.8086H10.5055C11.0578 15.8086 11.5055 15.3609 11.5055 14.8086C11.5055 14.2563 11.0578 13.8086 10.5055 13.8086H10.4941Z" fill="#BDBDC8"/>
</svg>
