<svg width="21" height="22" viewBox="0 0 21 22" fill="none" xmlns="http://www.w3.org/2000/svg">
<path d="M11.2927 0C12.1286 0 12.8854 0.462 13.3033 1.144C13.5066 1.474 13.6421 1.881 13.6083 2.31C13.5857 2.64 13.6873 2.97 13.8681 3.278C14.4441 4.213 15.7205 4.565 16.7145 4.037C17.8327 3.399 19.2446 3.784 19.8885 4.873L20.6452 6.171C21.3004 7.26 20.9389 8.657 19.8094 9.284C18.8493 9.845 18.5104 11.088 19.0865 12.034C19.2672 12.331 19.4705 12.584 19.7868 12.738C20.1821 12.947 20.4871 13.277 20.7017 13.607C21.1196 14.289 21.0858 15.125 20.6791 15.862L19.8885 17.182C19.4705 17.886 18.6912 18.326 17.8892 18.326C17.4939 18.326 17.0533 18.216 16.6919 17.996C16.3982 17.809 16.0593 17.743 15.6979 17.743C14.5797 17.743 13.6421 18.656 13.6083 19.745C13.6083 21.01 12.5691 22 11.2701 22H9.73397C8.42371 22 7.38454 21.01 7.38454 19.745C7.36195 18.656 6.42444 17.743 5.3062 17.743C4.93346 17.743 4.5946 17.809 4.31222 17.996C3.95077 18.216 3.49895 18.326 3.11491 18.326C2.30165 18.326 1.52227 17.886 1.10435 17.182L0.324969 15.862C-0.0929575 15.147 -0.115548 14.289 0.302379 13.607C0.483104 13.277 0.821963 12.947 1.206 12.738C1.52227 12.584 1.72559 12.331 1.91761 12.034C2.48238 11.088 2.14352 9.845 1.18341 9.284C0.0651769 8.657 -0.296273 7.26 0.34756 6.171L1.10435 4.873C1.75947 3.784 3.16009 3.399 4.28963 4.037C5.27232 4.565 6.54869 4.213 7.12475 3.278C7.30548 2.97 7.40713 2.64 7.38454 2.31C7.36195 1.881 7.4862 1.474 7.70081 1.144C8.11874 0.462 8.87552 0.022 9.70008 0H11.2927ZM10.5133 7.898C8.73998 7.898 7.30548 9.284 7.30548 11.011C7.30548 12.738 8.73998 14.113 10.5133 14.113C12.2867 14.113 13.6873 12.738 13.6873 11.011C13.6873 9.284 12.2867 7.898 10.5133 7.898Z" fill="#BDBDC8"/>
</svg>
