<svg width="15" height="15" viewBox="0 0 15 15" fill="none" xmlns="http://www.w3.org/2000/svg">
<path fill-rule="evenodd" clip-rule="evenodd" d="M7.36654 3.09245C4.68495 3.09245 2.69987 4.88503 2.69987 6.88411C2.69987 8.05895 3.36545 9.14278 4.47437 9.85678C4.90487 10.1344 5.02212 10.6752 5.04137 11.1529C5.48062 10.9721 5.7752 10.4763 6.30837 10.5778C6.64787 10.6419 7.00195 10.6758 7.36654 10.6758C10.0481 10.6758 12.0332 8.8832 12.0332 6.88411C12.0332 4.88503 10.0481 3.09245 7.36654 3.09245ZM1.5332 6.88411C1.5332 4.05086 4.2492 1.92578 7.36654 1.92578C10.4839 1.92578 13.1999 4.05086 13.1999 6.88411C13.1999 9.71736 10.4839 11.8424 7.36654 11.8424C6.98562 11.8424 6.61287 11.8115 6.25179 11.752C6.19754 11.7946 6.1042 11.8716 5.98929 11.9527C5.65737 12.1866 5.17845 12.4258 4.44987 12.4258C4.29516 12.4258 4.14679 12.3643 4.03739 12.2549C3.92799 12.1455 3.86654 11.9972 3.86654 11.8424C3.86654 11.5216 3.94995 11.1226 3.8117 10.8181C2.45312 9.93086 1.5332 8.51628 1.5332 6.88411Z" fill="#4C4C4C"/>
</svg>
