<svg width="89" height="25" viewBox="0 0 89 25" fill="none" xmlns="http://www.w3.org/2000/svg">
<g filter="url(#filter0_d_1575_748)">
<path d="M17.3804 10.002L19.6408 9.26451C20.6842 8.92408 21.2461 7.82601 20.8959 6.81172C20.5457 5.79743 19.4161 5.25124 18.3727 5.59167L8.83629 8.70317C8.51664 8.80746 8.22704 8.48413 8.37718 8.1907L9.60374 5.79363C10.0928 4.83778 9.69233 3.67778 8.70906 3.20233C7.80456 2.76548 6.70633 3.05659 6.15609 3.88049L1.82354 10.3678C1.81087 10.3868 1.79933 10.4065 1.78897 10.4267C0.932192 12.1019 0.731909 14.0968 1.39293 16.0113C2.71505 19.8407 6.98048 21.9032 10.9197 20.6179L15.3165 19.1833C16.2776 18.8697 16.8302 17.9132 16.6375 16.9715L13.9936 17.7939C13.6728 17.8937 13.3295 17.7218 13.2269 17.4099C13.1242 17.0981 13.3011 16.7644 13.6219 16.6646L16.0361 15.9136C16.5136 15.4633 16.7409 14.7957 16.6023 14.1366L13.9936 14.9481C13.6728 15.0479 13.3295 14.876 13.2269 14.5641C13.1242 14.2522 13.3011 13.9185 13.6219 13.8187L16.0458 13.0647C16.4764 12.6496 16.6976 12.0557 16.6218 11.4545L13.983 12.224C13.6604 12.3181 13.3204 12.1401 13.2236 11.8265C13.1268 11.5129 13.3099 11.1824 13.6325 11.0883L17.2919 10.0211C17.3213 10.0125 17.3509 10.0062 17.3804 10.002Z" fill="url(#paint0_linear_1575_748)"/>
</g>
<path d="M45.414 17.046C44.262 17.892 42.948 18.306 41.364 18.306C40.842 18.306 40.302 18.27 39.726 18.18C36.234 17.64 36.324 13.482 37.26 9.738H40.5C40.644 9.252 40.788 8.046 40.824 7.362H37.116V4.554H44.19C44.19 5.778 43.938 8.64 43.668 10.134L43.164 12.528H40.158C39.978 13.662 39.672 15.426 41.67 15.588C41.778 15.588 41.886 15.606 41.994 15.606C42.84 15.606 43.704 15.354 44.46 14.85L45.414 17.046ZM45.684 12.294H43.83V9.486H45.684V3.834H48.78V19.89H45.684V12.294ZM49.518 3.834H52.65V20.43H49.518V3.834ZM54.7284 18.774V15.732H69.8484V18.774H54.7284ZM69.8484 11.736C68.3904 13.212 66.8244 13.752 65.5284 13.752C63.9264 13.752 62.6664 12.942 62.0184 11.43C60.5064 13.176 58.5804 14.238 56.0964 15.102L54.5844 12.15C56.8704 11.34 58.8144 10.314 60.0564 8.406H55.8624V5.346H60.4344V3.456H64.0344V5.346H68.6064V8.406H64.0704C64.2324 9.558 64.8084 10.368 66.0324 10.368C66.5364 10.368 67.1484 10.152 67.9584 9.306L69.8484 11.736ZM72.0077 18.612V15.462H76.0937V11.034H79.7837V15.462H87.1277V18.612H72.0077ZM85.7597 5.868C87.1637 7.722 86.7857 11.322 83.1317 15.084L80.3777 12.96C82.1237 11.376 83.2037 8.82 82.3577 7.758C81.9077 7.182 81.0077 6.948 79.9097 6.948C78.1817 6.948 75.9317 7.506 73.9157 8.262L72.8537 5.328C75.1037 4.392 77.7677 3.816 80.1437 3.816C82.5377 3.816 84.6617 4.41 85.7597 5.868Z" fill="#3E3D4B"/>
<defs>
<filter id="filter0_d_1575_748" x="0.672607" y="2.67261" width="20.6548" height="18.6548" filterUnits="userSpaceOnUse" color-interpolation-filters="sRGB">
<feFlood flood-opacity="0" result="BackgroundImageFix"/>
<feColorMatrix in="SourceAlpha" type="matrix" values="0 0 0 0 0 0 0 0 0 0 0 0 0 0 0 0 0 0 127 0" result="hardAlpha"/>
<feOffset/>
<feGaussianBlur stdDeviation="0.163696"/>
<feComposite in2="hardAlpha" operator="out"/>
<feColorMatrix type="matrix" values="0 0 0 0 1 0 0 0 0 1 0 0 0 0 1 0 0 0 1 0"/>
<feBlend mode="normal" in2="BackgroundImageFix" result="effect1_dropShadow_1575_748"/>
<feBlend mode="normal" in="SourceGraphic" in2="effect1_dropShadow_1575_748" result="shape"/>
</filter>
<linearGradient id="paint0_linear_1575_748" x1="1" y1="3" x2="18.9006" y2="22.8895" gradientUnits="userSpaceOnUse">
<stop stop-color="#DB00FF"/>
<stop offset="1" stop-color="#459AFF"/>
</linearGradient>
</defs>
</svg>
