<svg width="48" height="48" viewBox="0 0 48 48" fill="none" xmlns="http://www.w3.org/2000/svg">
<g filter="url(#filter0_d_1575_49712)">
<path d="M33.267 22.6879L33.2675 22.6878L33.1729 22.3694L32.9136 21.4965L33.1729 22.3693L33.2675 22.6878C33.2674 22.6878 33.2672 22.6879 33.267 22.6879ZM32.8556 22.8101L33.2463 22.6941C33.3105 22.6835 33.3738 22.6678 33.4356 22.6473L36.7534 21.5447C37.5543 21.2786 38.4498 20.875 38.9258 20.0288C39.4259 19.1398 39.2519 18.1606 38.9667 17.3192C38.625 16.3112 37.9973 15.5103 36.9492 15.2432C36.0702 15.0193 35.1379 15.2528 34.3631 15.5088L20.9006 19.4138L22.7393 15.7343C22.7395 15.7338 22.7397 15.7333 22.74 15.7329C23.7698 13.6811 22.9202 11.1999 20.8646 10.1875L20.8641 10.1872C18.9787 9.25975 16.6837 9.87373 15.529 11.6348L15.529 11.6348L9.16957 21.3335L10.205 22.0124L9.16957 21.3335C9.12487 21.4016 9.08411 21.4723 9.04749 21.5453C7.64704 24.3342 7.31832 27.6606 8.3998 30.851C10.5628 37.2318 17.5304 40.6524 23.9523 38.5182L30.406 36.3735C32.4121 35.7069 33.578 33.6662 33.1716 31.6427C33.1021 31.2966 32.8886 30.9964 32.5845 30.817C32.5141 30.7755 32.4404 30.7414 32.3645 30.7148C33.0626 29.7925 33.3649 28.5918 33.1186 27.3981C33.0475 27.0535 32.8336 26.7551 32.5301 26.5772C32.4712 26.5427 32.4101 26.5133 32.3473 26.4892C32.9875 25.6493 33.2983 24.5766 33.1634 23.4868C33.1319 23.2326 33.0232 22.9971 32.8556 22.8101ZM20.5524 20.1108L20.5536 20.1084L20.5524 20.1108ZM27.8962 24.2833L27.8967 24.2831L27.8962 24.2833Z" stroke="url(#paint0_linear_1575_49712)" stroke-width="2.48546" stroke-miterlimit="10" stroke-linecap="round" stroke-linejoin="round" shape-rendering="crispEdges"/>
</g>
<defs>
<filter id="filter0_d_1575_49712" x="6.11961" y="8.12156" width="34.7608" height="32.667" filterUnits="userSpaceOnUse" color-interpolation-filters="sRGB">
<feFlood flood-opacity="0" result="BackgroundImageFix"/>
<feColorMatrix in="SourceAlpha" type="matrix" values="0 0 0 0 0 0 0 0 0 0 0 0 0 0 0 0 0 0 127 0" result="hardAlpha"/>
<feOffset/>
<feGaussianBlur stdDeviation="0.197033"/>
<feComposite in2="hardAlpha" operator="out"/>
<feColorMatrix type="matrix" values="0 0 0 0 1 0 0 0 0 1 0 0 0 0 1 0 0 0 1 0"/>
<feBlend mode="normal" in2="BackgroundImageFix" result="effect1_dropShadow_1575_49712"/>
<feBlend mode="normal" in="SourceGraphic" in2="effect1_dropShadow_1575_49712" result="shape"/>
</filter>
<linearGradient id="paint0_linear_1575_49712" x1="6.71696" y1="5.36138" x2="42.516" y2="12.6455" gradientUnits="userSpaceOnUse">
<stop stop-color="#DB00FF"/>
<stop offset="1" stop-color="#7945EC"/>
</linearGradient>
</defs>
</svg>
